<svg xmlns="http://www.w3.org/2000/svg" width="197" height="30" fill="none"><path fill="#457537" d="M24.702 0H0v27.222L2.67 30h9.963v-6.4l6.01 6.4h13.3v-4.78l-8.011-8.44-11.298 6.651V4.871L23.931 16.78l8.011-4.933V6.61L24.702 0Z"/><path fill="#fff" d="M39.236 0h7.19v29.898h-7.19V0Zm23.932 29.898H55.67l-5.238-10.627 7.241-.762 5.495 11.39Z"/><path fill="#fff" fill-rule="evenodd" d="M56.903 0H39.236v19.526h17.667c2.836 0 5.135-2.277 5.135-5.085V5.085c0-2.808-2.3-5.085-5.135-5.085Zm-2.568 6h-7.909v7.729h7.909c.34 0 .616-.273.616-.61V6.61a.613.613 0 0 0-.616-.61Z" clip-rule="evenodd"/><path fill="#fff" d="M66.66 0h7.19v29.898h-7.19V0Zm16.948 0h7.19v29.898h-7.19V0Zm0 11.492v6.305H73.85v-6.305h9.758Z"/><path fill="#fff" fill-rule="evenodd" d="M101.582 0c-4.027 0-7.292 3.222-7.292 7.196v15.507c0 3.974 3.264 7.195 7.292 7.195h10.168c4.028 0 7.293-3.221 7.293-7.195V7.196c0-3.974-3.265-7.196-7.293-7.196h-10.168Zm3.184 6.385c-1.305 0-2.362 1.044-2.362 2.331v12.162c0 1.288 1.057 2.331 2.362 2.331h3.8c1.305 0 2.363-1.043 2.363-2.33V8.715c0-1.287-1.058-2.33-2.363-2.33h-3.8Z" clip-rule="evenodd"/><path fill="#fff" d="M122.638 0h7.498v29.898h-7.498V0Z"/><path fill="#fff" d="M138.558 0h-10.682v6.305h7.327c1.985 0 3.601 1.595 3.771 3.553.098 1.126.2 2.409.2 4.935a57.49 57.49 0 0 1-.213 5.295l-.004.053c-.157 1.96-1.769 3.554-3.754 3.554h-7.327v6.203h10.682c3.971 0 7.238-3.187 7.526-7.108.144-1.965.28-4.28.28-8.197 0-3.62-.116-5.755-.248-7.487-.297-3.92-3.587-7.106-7.558-7.106Zm11.298 0h7.19v29.898h-7.19V0Z"/><path fill="#fff" d="M170.707 0v6.203h-20.851V0h20.851Zm0 23.695v6.203h-20.851v-6.203h20.851Zm-2.774-12.102v6.204h-18.077v-6.204h18.077Zm6.369-6.508c0-2.808 2.299-5.085 5.135-5.085h12.428c2.836 0 5.136 2.277 5.136 5.085v4.424H189.4V6.763a.613.613 0 0 0-.616-.61h-6.522a.613.613 0 0 0-.617.61v3.23c0 .282.194.527.472.592.419.099.873.204 1.352.316 4.279.995 10.529 2.448 11.169 3.082.21.207.422.389.628.565.702.6 1.331 1.137 1.529 2.435.137.895.19 1.734.206 2.325v5.506c0 2.808-2.3 5.084-5.136 5.084h-12.428c-2.836 0-5.135-2.276-5.135-5.084v-4.466h7.277v3.042c0 .337.276.61.616.61h7.205c.34 0 .616-.273.616-.61v-3.611a.607.607 0 0 0-.472-.593c-.624-.143-1.308-.296-2.029-.457-4.443-.992-10.274-2.293-11.724-3.729-.984-.974-1.103-1.75-1.369-3.492a31.182 31.182 0 0 1-.018-.118c-.223-1.46 0-3.407 0-3.407l-.102.048V5.085Z"/></svg>